<?xml version="1.0" encoding="utf-8"?>
<svg viewBox="0 0 1024 1024" xmlns="http://www.w3.org/2000/svg">
  <path d="M 512 1024 C 229.831 1024 0 794.169 0 512 C 0 229.831 229.831 0 512 0 C 794.169 0 1024 229.831 1024 512 C 1024 794.169 794.169 1024 512 1024 Z M 512 113.778 C 292.409 113.778 113.778 292.409 113.778 512 C 113.778 731.591 292.409 910.222 512 910.222 C 731.591 910.222 910.222 731.591 910.222 512 C 910.222 292.409 731.591 113.778 512 113.778 Z" p-id="6272"/>
  <path d="M 367 512 L 367 399.574 C 367 355.117 415.131 327.562 453.34 349.606 L 550.703 405.82 L 648.066 462.033 C 686.645 484.077 686.645 539.556 648.066 561.968 L 550.703 618.181 L 453.34 674.394 C 414.763 696.439 367 668.883 367 624.427 L 367 512 Z" p-id="6273"/>
</svg>