<?xml version="1.0" encoding="utf-8"?>
<svg viewBox="0 0 1024 1024" xmlns="http://www.w3.org/2000/svg">
  <path d="M 512 1024 C 229.831 1024 0 794.169 0 512 C 0 229.831 229.831 0 512 0 C 794.169 0 1024 229.831 1024 512 C 1024 794.169 794.169 1024 512 1024 Z M 512 113.778 C 292.409 113.778 113.778 292.409 113.778 512 C 113.778 731.591 292.409 910.222 512 910.222 C 731.591 910.222 910.222 731.591 910.222 512 C 910.222 292.409 731.591 113.778 512 113.778 Z" p-id="939"/>
  <path d="M 423.635 360.3 L 600.365 360.3 C 642.588 360.3 663.7 381.412 663.7 423.635 L 663.7 600.365 C 663.7 642.588 642.588 663.7 600.365 663.7 L 423.635 663.7 C 381.412 663.7 360.3 642.588 360.3 600.365 L 360.3 423.635 C 360.3 381.412 381.412 360.3 423.635 360.3 Z" p-id="940"/>
</svg>